# xmcd
# Track frame offsets:
# 150
# 16205
# 35939
# 56412
# 73560
# 89131
# 105472
# 121711
# 137520
# 154856
# 170798
# 193194
# 209498
# 226332
# 244748
#
# Disc length: 3648 seconds
# Revision: 0
# Processed by: cddbd v1.5.1PL0 Copyright (c) Steve Scherf et al.
# Submitted via: VisiTrax 2.9.10.228 - For more info visit www.synapsa.com
#
DISCID=d40e3e0f
DTITLE=Various Artist - CB60337
DYEAR=1900
DGENRE=Karaoke
TTITLE0=Wilson, Gretchen - Homewrecker
TTITLE1=Pinson, Bobby - Dont Ask Me How I Know
TTITLE2=Rascal Flatts, The - Skin
TTITLE3=Dotson, Amber - Ill Try Anything
TTITLE4=McComas, Brian - Middle Of Nowhere, The
TTITLE5=Diamond Rio - One Believer
TTITLE6=Trick Pony - It's A Heartache
TTITLE7=Jewell, Buddy - If She Were Any Other Woman
TTITLE8=Green, Pat - Baby Doll
TTITLE9=Carter, Deana - One Day At A Time
TTITLE10=Randy Rogers Band - Tonights Not The Night
TTITLE11=Byrd, Tracy - Tiny Town
TTITLE12=McCann, Lila - Go Easy On Me
TTITLE13=Hanna-McEuen - Something Like A Broken Heart
TTITLE14=Merritt, Tift - Good Hearted Man
EXTD=
EXTT0=
EXTT1=
EXTT2=
EXTT3=
EXTT4=
EXTT5=
EXTT6=
EXTT7=
EXTT8=
EXTT9=
EXTT10=
EXTT11=
EXTT12=
EXTT13=
EXTT14=
PLAYORDER=
